# xmcd
#
# Track frame offsets:
#	150
#	17531
#	33726
#	49820
#	66651
#	88287
#	106663
#	123640
#	140314
#	154629
#	171277
#	188067
#	211301
#	227652
#	245775
#	265181
#	283805
#	299711
#	326178
#
# Disc length: 4594 seconds
#
# Revision: 1
# Processed by: cddbd v1.5.2PL0 Copyright (c) Steve Scherf et al.
# Submitted via: audiograbber 1.83.01
#
DISCID=2b11f013
DTITLE=Various Artist - Ultimate Disco Party CD1
DYEAR=1900
DGENRE=Disco
TTITLE0=Abba - Dancing Queen
TTITLE1=Chic - Good Times
TTITLE2=Sister Sledge - He's The Greatest Dancer
TTITLE3=The Jacksons - Shake Your Body (Down To The Ground)
TTITLE4=Earth Wind and Fire w The Emotions - Boogie Wonderland
TTITLE5=Chaka Khan - I'm Every Woman
TTITLE6=Donna Summer - I Feel Love
TTITLE7=Amii Stewart - Knock On Wood
TTITLE8=Patrick Hernandez - Born To Be Alive
TTITLE9=Village People - In The Navy
TTITLE10=Boystown Gang - Can't Take My Eyes Off You
TTITLE11=La Belle Epoque - Black Is Black (12in mix)
TTITLE12=Sheila - Spacer
TTITLE13=Cerrone - Supernature
TTITLE14=Sarah Brightman and Hot Gossip - I Lost My Heart To A Starship Trooper
TTITLE15=Dee D Jackson - Automatic Lover
TTITLE16=Meco - Star Wars Theme
TTITLE17=Crown Heights Affair - Galaxy Of Love
TTITLE18=Space - Magic Fly
EXTD=(P) Sony BMG 2008
EXTT0=
EXTT1=
EXTT2=
EXTT3=
EXTT4=
EXTT5=
EXTT6=
EXTT7=
EXTT8=
EXTT9=
EXTT10=
EXTT11=
EXTT12=
EXTT13=
EXTT14=
EXTT15=
EXTT16=
EXTT17=
EXTT18=
PLAYORDER=
